<svg xmlns="http://www.w3.org/2000/svg" viewBox="0 0 820 120" font-family="system-ui, -apple-system, 'Segoe UI', sans-serif">
  <defs>
    <filter id="shadow" x="-4%" y="-4%" width="108%" height="116%">
      <feDropShadow dx="0" dy="2" stdDeviation="3" flood-color="#000" flood-opacity="0.07"/>
    </filter>
    <marker id="arrow" viewBox="0 0 10 8" refX="9" refY="4" markerWidth="8" markerHeight="6" orient="auto-start-reverse">
      <path d="M0,0 L10,4 L0,8 Z" fill="#94A3B8"/>
    </marker>
  </defs>

  <!-- Step 1: /specs -->
  <g filter="url(#shadow)">
    <rect x="10" y="20" width="170" height="72" rx="12" fill="#F5F3FF" stroke="#8B5CF6" stroke-width="1.5"/>
    <rect x="10" y="20" width="5" height="72" rx="2.5" fill="#8B5CF6"/>
    <text x="95" y="50" text-anchor="middle" font-size="14" font-weight="600" fill="#1E293B">/specs</text>
    <text x="95" y="70" text-anchor="middle" font-size="11" fill="#64748B">4 artifacts</text>
  </g>

  <!-- Arrow 1 -->
  <line x1="180" y1="56" x2="210" y2="56" stroke="#94A3B8" stroke-width="2" marker-end="url(#arrow)"/>
  <text x="195" y="46" text-anchor="middle" font-size="9" fill="#94A3B8">consistency</text>
  <text x="195" y="30" text-anchor="middle" font-size="9" fill="#94A3B8">gate</text>

  <!-- Step 2: /plan -->
  <g filter="url(#shadow)">
    <rect x="216" y="20" width="170" height="72" rx="12" fill="#EFF6FF" stroke="#3B82F6" stroke-width="1.5"/>
    <rect x="216" y="20" width="5" height="72" rx="2.5" fill="#3B82F6"/>
    <text x="301" y="50" text-anchor="middle" font-size="14" font-weight="600" fill="#1E293B">/plan</text>
    <text x="301" y="70" text-anchor="middle" font-size="11" fill="#64748B">TDD steps</text>
  </g>

  <!-- Arrow 2 -->
  <line x1="386" y1="56" x2="416" y2="56" stroke="#94A3B8" stroke-width="2" marker-end="url(#arrow)"/>
  <text x="401" y="46" text-anchor="middle" font-size="9" fill="#94A3B8">human</text>
  <text x="401" y="30" text-anchor="middle" font-size="9" fill="#94A3B8">approval</text>

  <!-- Step 3: /build -->
  <g filter="url(#shadow)">
    <rect x="422" y="20" width="170" height="72" rx="12" fill="#ECFDF5" stroke="#10B981" stroke-width="1.5"/>
    <rect x="422" y="20" width="5" height="72" rx="2.5" fill="#10B981"/>
    <text x="507" y="50" text-anchor="middle" font-size="14" font-weight="600" fill="#1E293B">/build</text>
    <text x="507" y="70" text-anchor="middle" font-size="11">
      <tspan fill="#EF4444" font-weight="600">RED</tspan>
      <tspan fill="#64748B"> - </tspan>
      <tspan fill="#22C55E" font-weight="600">GREEN</tspan>
      <tspan fill="#64748B"> - </tspan>
      <tspan fill="#3B82F6" font-weight="600">REFACTOR</tspan>
    </text>
  </g>

  <!-- Arrow 3 -->
  <line x1="592" y1="56" x2="622" y2="56" stroke="#94A3B8" stroke-width="2" marker-end="url(#arrow)"/>
  <text x="607" y="46" text-anchor="middle" font-size="9" fill="#94A3B8">code</text>
  <text x="607" y="30" text-anchor="middle" font-size="9" fill="#94A3B8">review</text>

  <!-- Step 4: /pr -->
  <g filter="url(#shadow)">
    <rect x="628" y="20" width="170" height="72" rx="12" fill="#FFF7ED" stroke="#F97316" stroke-width="1.5"/>
    <rect x="628" y="20" width="5" height="72" rx="2.5" fill="#F97316"/>
    <text x="713" y="50" text-anchor="middle" font-size="14" font-weight="600" fill="#1E293B">/pr</text>
    <text x="713" y="70" text-anchor="middle" font-size="11" fill="#64748B">quality gates</text>
  </g>
</svg>